<?xml version="1.0" encoding="UTF-8"?>
<svg id="Layer_2" data-name="Layer 2" xmlns="http://www.w3.org/2000/svg" xmlns:xlink="http://www.w3.org/1999/xlink" viewBox="0 0 475.16 477.28">
  <defs>
    <style>
      .cls-1 {
        font-family: Calibri-Bold, Calibri;
        font-size: 50px;
        font-weight: 700;
      }

      .cls-2 {
        clip-path: url(#clippath-2);
      }

      .cls-3 {
        clip-path: url(#clippath-1);
      }

      .cls-4 {
        fill: #ff8c00;
      }

      .cls-5 {
        clip-path: url(#clippath);
      }

      .cls-6 {
        fill: none;
      }
    </style>
    <clipPath id="clippath">
      <rect class="cls-6" x="163.56" width="136.06" height="136.06"/>
    </clipPath>
    <clipPath id="clippath-1">
      <rect class="cls-6" x="163.56" width="136.06" height="136.06"/>
    </clipPath>
    <clipPath id="clippath-2">
      <rect class="cls-6" x="163.56" y="0" width="136.06" height="136.06"/>
    </clipPath>
  </defs>
  <g id="Layer_1-2" data-name="Layer 1">
    <path class="cls-4" d="m311.25,271.62c-.13-.93-.66-1.46-1.85-1.2-.93.27-2.51.53-4.5.53-2.51,0-5.55-.93-5.55-5.68v-51.17c0-1.19-.8-1.98-1.98-1.98h-10.97c-1.19,0-2.12.93-2.12,1.98v52.08c0,10.31,5.69,15.86,16.13,15.86,6.08,0,9.91-1.19,10.97-1.71,1.19-.53,1.32-1.06,1.06-2.65l-1.19-6.07Zm81.71-.27c-.13-.93-.66-1.19-1.32-1.19-1.46.26-2.64.53-4.37.53-2.51,0-3.83-.53-3.83-4.89l.66-37.01v-.67c0-13.75-8.46-18.37-22.73-18.37-7.54,0-15.6,2.91-22.08,5.55l-.67-3.56c-.26-1.06-.66-2.25-2.25-1.98l-10.84,2.12c-1.19.26-2.38.8-1.99,2.25l2.64,10.58v54.2c0,1.2.93,1.98,2.25,1.98h10.84c1.32,0,1.98-.78,1.98-1.98v-54.85c2.38-1.2,8.98-3.58,17.05-3.58,7.27,0,10.84,2.38,10.84,10.18l-.53,34.77v1.19c0,10.97,3.83,15.46,13.88,15.46,5.02,0,8.72-1.19,10.31-1.84.66-.27,1.59-.8,1.33-2.11l-1.19-6.75Zm-158.53.53c-7.01,0-12.56-1.19-14.54-1.85v-46.66c2.91-.8,10.31-2.51,15.73-2.51,11.1,0,16.39,2.38,16.39,25.24,0,20.36-4.37,25.78-17.58,25.78Zm4.62-62.13c-8.72,0-18.9,1.59-26.44,4.23-6.21,2.12-7.79,4.23-7.79,10.58v69.8l-1.33,10.05c-.13,1.32.79,1.84,1.98,2.12l10.58,1.97c1.85.4,2.38-.65,2.51-1.84l1.32-10.98v-7.53l-1.46-7.93c4.76,1.32,11.63,2.38,19.17,2.38,24.32,0,29.87-13.75,29.87-36.35,0-21.29-3.43-36.49-28.42-36.49Zm196.23,38.87c-10.45,0-15.47-4.1-15.47-14.68s5.02-14.81,15.47-14.81,15.6,4.23,15.6,14.81-5.16,14.68-15.6,14.68Zm-5.95,33.44h13.75c5.82,0,11.63.53,11.63,7.54,0,9.11-9.92,10.57-18.25,10.57-11.1,0-18.77-1.33-18.77-9.39,0-7.27,5.82-8.73,11.63-8.73Zm45.47-64.51l-2.64-7.66c-.27-.8-.53-1.06-1.06-1.06-.27,0-.53.13-1.06.4-1.85.92-4.5,2.12-6.87,2.9-1.85.53-4.23.8-6.22.8s-3.57-.13-5.02-.52l-1.32-.4c-4.36-1.32-7.93-2.25-15.47-2.25-18.11,0-30.14,6.21-30.14,24.72,0,14.95,8.99,17.72,14.54,19.44-8.72,1.45-14.14,3.3-14.14,11.63,0,9.11,4.62,10.17,11.63,11.5v1.84c-6.48,1.33-13.88,2.91-13.88,13.75,0,13.23,10.84,17.32,33.05,17.32,19.3,0,33.18-5.82,33.18-22.47,0-13.49-10.84-16.92-23.13-16.92h-16.52c-6.21,0-9.78-1.06-9.78-6.21,0-3.3,1.59-6.08,7.4-6.08,3.44,0,3.83-.13,8.86-.13,16.92,0,28.95-5.29,28.95-22.87,0-7.93-4.49-12.29-5.42-13.08,2.91.52,3.17.8,5.42.8,3.04,0,6.34-.93,9.26-2.91.53-.4.66-.93.66-1.19,0-.53-.13-.93-.26-1.33Zm-439.79,13.22l38.6-44.81c.4-.53.4-.67.4-1.06,0-.8-.8-1.46-1.46-1.46l-15.33-.26c-.8,0-1.45.39-1.85.93l-33.7,40.71h-5.56v-39.65c0-1.06-.93-1.98-2.12-1.98H2.25c-1.19,0-2.25.93-2.25,1.98v93.72c0,1.06,1.06,1.98,2.25,1.98h11.76c1.19,0,2.12-.78,2.12-1.98v-40.97h5.56l35.16,42.03c.53.53,1.19.93,1.98.93h16.92c.66,0,1.46-.66,1.46-1.45,0-.26-.13-.8-.4-1.06l-41.77-47.59Zm252.17-29.35h9.25c1.85,0,2.78-.93,2.78-2.64v-14.67c0-1.72-.93-2.65-2.78-2.65h-9.25c-1.85,0-2.77.93-2.77,2.65v14.67c0,1.71.92,2.64,2.77,2.64Zm-171.77,70.33c-16.13,0-16.79-9.39-16.79-25.51s.66-25.65,16.79-25.65,16.66,9.39,16.66,25.65-.66,25.51-16.66,25.51Zm0-62c-28.69,0-32.25,16.26-32.25,36.49s3.57,36.35,32.25,36.35,32.12-16.26,32.12-36.35-3.43-36.49-32.12-36.49Zm75.11,61.87c-.13-.93-.66-1.46-1.72-1.2-.92.27-2.64.53-4.63.53-2.64,0-5.55-.93-5.55-5.68v-70.86l-1.32-10.98c-.14-1.19-.66-2.25-2.25-1.98l-10.84,2.12c-1.19.27-2.11.8-1.98,1.98l1.32,10.18v70.45c0,10.31,5.81,15.86,16.26,15.86,6.08,0,9.78-1.19,10.97-1.71.53-.26,1.33-.53.93-2.38l-1.19-6.34Z"/>
    <text class="cls-1" transform="translate(160.3 409.82)"><tspan x="0" y="0">K</tspan></text>
    <text class="cls-1" transform="translate(186.83 409.82)"><tspan x="0" y="0">o</tspan></text>
    <text class="cls-1" transform="translate(213.71 409.82)"><tspan x="0" y="0">l</tspan></text>
    <text class="cls-1" transform="translate(225.99 409.82)"><tspan x="0" y="0">p</tspan></text>
    <text class="cls-1" transform="translate(252.83 409.82)"><tspan x="0" y="0">i</tspan></text>
    <text class="cls-1" transform="translate(265.11 409.82)"><tspan x="0" y="0">n</tspan></text>
    <text class="cls-1" transform="translate(291.94 409.82)"><tspan x="0" y="0">g</tspan></text>
    <text class="cls-1" transform="translate(315.64 409.82)"><tspan x="0" y="0">s</tspan></text>
    <text class="cls-1" transform="translate(335.17 409.82)"><tspan x="0" y="0">f</tspan></text>
    <text class="cls-1" transform="translate(350.19 409.82)"><tspan x="0" y="0">a</tspan></text>
    <text class="cls-1" transform="translate(374.87 409.82)"><tspan x="0" y="0">m</tspan></text>
    <text class="cls-1" transform="translate(415.55 409.82)"><tspan x="0" y="0">i</tspan></text>
    <text class="cls-1" transform="translate(427.83 409.82)"><tspan x="0" y="0">l</tspan></text>
    <text class="cls-1" transform="translate(440.11 409.82)"><tspan x="0" y="0">e</tspan></text>
    <text class="cls-1" transform="translate(160.3 459.82)"><tspan x="0" y="0">S</tspan></text>
    <text class="cls-1" transform="translate(183.93 459.82)"><tspan x="0" y="0">c</tspan></text>
    <text class="cls-1" transform="translate(204.85 459.82)"><tspan x="0" y="0">h</tspan></text>
    <text class="cls-1" transform="translate(231.68 459.82)"><tspan x="0" y="0">o</tspan></text>
    <text class="cls-1" transform="translate(258.56 459.82)"><tspan x="0" y="0">r</tspan></text>
    <text class="cls-1" transform="translate(276.34 459.82)"><tspan x="0" y="0">n</tspan></text>
    <text class="cls-1" transform="translate(303.17 459.82)"><tspan x="0" y="0">d</tspan></text>
    <text class="cls-1" transform="translate(330 459.82)"><tspan x="0" y="0">o</tspan></text>
    <text class="cls-1" transform="translate(356.88 459.82)"><tspan x="0" y="0">r</tspan></text>
    <text class="cls-1" transform="translate(374.65 459.82)"><tspan x="0" y="0">f</tspan></text>
    <text class="cls-1" transform="translate(390.47 459.82)"><tspan x="0" y="0"> </tspan></text>
    <text class="cls-1" transform="translate(401.78 459.82)"><tspan x="0" y="0">e</tspan></text>
    <text class="cls-1" transform="translate(426.95 459.82)"><tspan x="0" y="0">.</tspan></text>
    <text class="cls-1" transform="translate(437.01 459.82)"><tspan x="0" y="0">V</tspan></text>
    <text class="cls-1" transform="translate(461.81 459.82)"><tspan x="0" y="0">.</tspan></text>
    <g class="cls-5">
      <g class="cls-3">
        <g class="cls-2">
          <rect x="163.56" y="0" width="45.35" height="136.06"/>
          <polygon points="208.91 68.03 299.61 136.06 299.62 136.06 299.62 0 208.91 68.03"/>
          <polygon class="cls-4" points="208.91 136.06 299.62 136.06 299.62 136.06 208.91 68.03 208.91 136.06"/>
          <polygon class="cls-4" points="208.91 0 208.91 68.03 299.62 0 208.91 0"/>
        </g>
      </g>
    </g>
  </g>
</svg>