<?xml version="1.0" encoding="UTF-8"?>
<svg id="Layer_1" data-name="Layer 1" xmlns="http://www.w3.org/2000/svg" viewBox="0 0 238.19 239">
  <defs>
    <style>
      .cls-1 {
        fill: #000;
      }

      .cls-1, .cls-2 {
        stroke-width: 0px;
      }

      .cls-3 {
        letter-spacing: -.01em;
      }

      .cls-3, .cls-4, .cls-5, .cls-6, .cls-7, .cls-8 {
        fill: #fff;
        font-family: Calibri-Bold, Calibri;
        font-size: 25px;
        font-weight: 700;
      }

      .cls-2 {
        fill: #ff8c00;
      }

      .cls-4 {
        letter-spacing: 0em;
      }

      .cls-5 {
        letter-spacing: -.07em;
      }

      .cls-6 {
        letter-spacing: -.02em;
      }

      .cls-7 {
        letter-spacing: 0em;
      }
    </style>
  </defs>
  <text class="cls-6" transform="translate(80.51 205.27)"><tspan x="0" y="0">Ko</tspan></text>
  <text class="cls-7" transform="translate(107.04 205.27)"><tspan x="0" y="0">lpingsfamili</tspan></text>
  <text class="cls-8" transform="translate(225.4 205.27)"><tspan x="0" y="0">e</tspan></text>
  <text class="cls-4" transform="translate(80.51 230.27)"><tspan x="0" y="0">Schorndor</tspan></text>
  <text class="cls-8" transform="translate(187.49 230.27)"><tspan x="0" y="0">f </tspan></text>
  <text class="cls-3" transform="translate(201.05 230.27)"><tspan x="0" y="0">e.</tspan></text>
  <text class="cls-5" transform="translate(218.38 230.27)"><tspan x="0" y="0">V.</tspan></text>
  <polyline class="cls-2" points="104.88 34.02 150.24 0 82.21 0 82.21 0 104.88 0 104.88 68.03 150.24 68.03"/>
  <path class="cls-1" d="M150.24,68.03V0l-45.35,34.02,45.35,34.01h0ZM82.2,68.03h22.68V0h-22.68v68.03h0Z"/>
  <path class="cls-2" d="M238.11,109.44c0-.27-.06-.46-.13-.67l-1.32-3.83c-.13-.4-.27-.53-.53-.53-.13,0-.27.07-.53.2-.93.46-2.25,1.06-3.44,1.45-.93.27-2.12.4-3.11.4s-1.79-.07-2.51-.26l-.66-.2c-2.18-.66-3.97-1.12-7.74-1.12-9.06,0-15.07,3.11-15.07,12.36,0,7.48,4.5,8.86,7.27,9.72-4.36.73-7.07,1.65-7.07,5.82,0,4.56,2.31,5.09,5.82,5.75v.92c-3.24.67-6.94,1.46-6.94,6.88,0,6.62,5.42,8.66,16.53,8.66,9.65,0,16.6-2.91,16.6-11.24,0-6.75-5.42-8.46-11.57-8.46h-8.27c-3.11,0-4.89-.53-4.89-3.11,0-1.65.79-3.04,3.7-3.04,1.72,0,1.92-.07,4.43-.07,8.47,0,14.48-2.64,14.48-11.44,0-3.96-2.25-6.14-2.71-6.54,1.46.26,1.58.4,2.71.4,1.52,0,3.17-.46,4.63-1.46.26-.2.33-.46.33-.6h0ZM215.24,141.04h6.88c2.91,0,5.82.27,5.82,3.77,0,4.56-4.96,5.29-9.13,5.29-5.55,0-9.39-.67-9.39-4.7,0-3.64,2.91-4.37,5.82-4.37h0ZM226.01,116.98c0,5.29-2.58,7.34-7.8,7.34s-7.74-2.05-7.74-7.34,2.51-7.41,7.74-7.41,7.8,2.12,7.8,7.41h0ZM197.53,139.06l-.6-3.38c-.07-.46-.33-.6-.66-.6-.73.13-1.32.27-2.18.27-1.26,0-1.92-.27-1.92-2.45l.33-18.51v-.33c0-6.88-4.23-9.19-11.37-9.19-3.77,0-7.81,1.46-11.05,2.78l-.33-1.78c-.13-.53-.33-1.12-1.12-.99l-5.42,1.06c-.59.13-1.19.4-.99,1.12l1.32,5.29v27.1c0,.6.46.99,1.12.99h5.42c.66,0,1-.39,1-.99v-27.43c1.19-.6,4.49-1.79,8.53-1.79,3.64,0,5.42,1.19,5.42,5.09l-.26,17.39v.6c0,5.49,1.92,7.73,6.94,7.73,2.51,0,4.36-.6,5.16-.92.33-.14.79-.4.66-1.06h0ZM156.78,138.86l-.59-3.04c-.07-.46-.33-.73-.93-.6-.46.14-1.25.27-2.25.27-1.25,0-2.77-.46-2.77-2.84v-25.59c0-.59-.4-.99-.99-.99h-5.49c-.59,0-1.06.47-1.06.99v26.05c0,5.16,2.84,7.93,8.07,7.93,3.04,0,4.96-.59,5.49-.86.6-.27.66-.53.53-1.33h0ZM150.17,99.39v-7.34c0-.86-.46-1.32-1.39-1.32h-4.63c-.93,0-1.39.46-1.39,1.32v7.34c0,.86.46,1.32,1.39,1.32h4.63c.93,0,1.39-.46,1.39-1.32h0ZM134.18,123.13c0-10.65-1.72-18.25-14.21-18.25-4.36,0-9.46.79-13.22,2.12-3.11,1.06-3.9,2.11-3.9,5.29v34.91l-.66,5.03c-.06.66.4.92.99,1.06l5.29.99c.92.2,1.19-.32,1.26-.92l.66-5.49v-3.77l-.73-3.97c2.38.66,5.82,1.19,9.59,1.19,12.17,0,14.94-6.88,14.94-18.18h0ZM126.44,123.06c0,10.19-2.18,12.9-8.79,12.9-3.51,0-6.28-.6-7.27-.93v-23.34c1.45-.4,5.16-1.25,7.87-1.25,5.55,0,8.2,1.19,8.2,12.62h0ZM96.29,139l-.6-3.17c-.06-.47-.33-.73-.86-.6-.46.14-1.32.27-2.32.27-1.32,0-2.77-.46-2.77-2.84v-35.44l-.66-5.49c-.07-.6-.33-1.12-1.13-.99l-5.42,1.06c-.6.14-1.06.4-.99.99l.66,5.09v35.24c0,5.16,2.9,7.93,8.13,7.93,3.04,0,4.89-.59,5.49-.86.26-.13.66-.26.47-1.19h0ZM73.98,123.13c0-10.12-1.72-18.25-16.07-18.25s-16.13,8.13-16.13,18.25,1.78,18.18,16.13,18.18,16.07-8.13,16.07-18.18h0ZM66.25,123.13c0,8.07-.33,12.76-8.33,12.76s-8.39-4.7-8.39-12.76.33-12.83,8.39-12.83,8.33,4.7,8.33,12.83h0ZM38.61,139.72c0-.13-.07-.4-.2-.53l-20.89-23.8,19.31-22.41c.2-.27.2-.33.2-.53,0-.4-.4-.73-.73-.73l-7.67-.13c-.4,0-.73.2-.93.46l-16.86,20.36h-2.78v-19.83c0-.53-.47-.99-1.06-.99H1.12c-.59,0-1.12.46-1.12.99v46.87c0,.53.53.99,1.12.99h5.88c.59,0,1.06-.39,1.06-.99v-20.49h2.78l17.58,21.02c.26.27.6.46.99.46h8.46c.33,0,.73-.33.73-.73h0Z"/>
</svg>